# xmcd
#
# Track frame offsets:
#	150
#	16972
#	29045
#	43425
#	60832
#	72965
#	93267
#	112737
#	126367
#	138425
#	157862
#	169185
#	184637
#	200422
#
# Disc length: 2996 seconds
#
# Revision: 1
# Processed by: cddbd v1.5.2PL0 Copyright (c) Steve Scherf et al.
# Submitted via: audiograbber 1.83.01
#
DISCID=ba0bb20e
DTITLE=Various Artist - Meren Laulu
DYEAR=1995
DGENRE=Pop
TTITLE0=Jarno Sarjanen - Mustat Kaleerit
TTITLE1=Sonja Lumme - Toiveiden Saari
TTITLE2=Jukka Kuoppamäki - Merimies
TTITLE3=Jarmo Jylhä - Kotisatama
TTITLE4=Jarno Sarjanen - Jambalaya
TTITLE5=Ossi Ahlapuro - Carolina, Tyttö Pireuksen
TTITLE6=Pepe Willberg - Merisairaat Kasvot
TTITLE7=Jarno Sarjanen - Musta Rudolf
TTITLE8=Harmony Four - Sataman Valot
TTITLE9=Sonja Lumme - Meren Tuoksu
TTITLE10=Jarno Sarjanen - Kitara Ja Meri
TTITLE11=Kike Elomaa - Kristoffer Kolumbus
TTITLE12=Jaska Mäkynen - On Meri Ikuinen
TTITLE13=Pepe Willberg - Merimies
EXTD=TR.
EXTT0=
EXTT1=
EXTT2=
EXTT3=
EXTT4=
EXTT5=
EXTT6=
EXTT7=
EXTT8=
EXTT9=
EXTT10=
EXTT11=
EXTT12=
EXTT13=
PLAYORDER=
